<svg version="1.1" xmlns="http://www.w3.org/2000/svg" xmlns:xlink="http://www.w3.org/1999/xlink" xmlns:a="http://ns.adobe.com/AdobeSVGViewerExtensions/3.0/" x="0px" y="0px" height="1050.5px" viewBox="0 0 2205 1050.5" style="enable-background:new 0 0 2205 1050.5;" xml:space="preserve">
		<style type="text/css">
			.st0{fill:#FFFFFF;}
		</style>
		<defs>
		</defs>
		<g>
			<path class="st0" d="M1514.2,429.4c3.7,0.1,7.3,0.3,11,0.5c-1.5,5.3-3.2,10.6-5.1,15.8C1517.8,440.4,1515.9,435,1514.2,429.4
				L1514.2,429.4z"></path>
			<path class="st0" d="M1516.8,483.2c3.4,5.5,5.1,11.8,6,18.1c-3.8,0.5-7.6,1-11.4,1.4C1513.1,496.2,1514.6,489.7,1516.8,483.2
				L1516.8,483.2z"></path>
			<path class="st0" d="M2128,1031.6c-20.2-2.7-40.5-1.6-60.7-2.5c-10.6-0.9-22.9,3.3-31.9-4.1c27.1-11,54.2-21.8,80.8-33.7
				c26.5-10.9,52.1-25,80.5-30.2c0-109.8-1-219.6-0.9-329.4c-4.4-53-0.9-106.3-2.3-159.4c-43.8,6.9-88.3,4.3-132.5,4.8
				c-21.3,0.3-42.9-1.3-63.9,3.4c-15.4-16.6-25.6-39.3-46.5-50.1c-10.3-4.3-20.3,2.3-30,4.8c-18.5-2.3-23.6-27.5-42.6-28.6
				c-15.4-1.3-25.1,13.6-31.3,25.5c-4.9,11.1-16.4,16.9-27,21.4c-6.5,2.4-9.6-6.1-13.7-9.6c-12.6,4.8-31.5,1.6-37.6,16.6
				c-6.9,15.2-2.3,32.6-1.1,48.6c0,5.8,3,13.6-3,17.4c-32,26.6-64.7,53.3-90.4,86.4c-5.8,8.1-17.1,7.6-25.5,11.8
				c10-38.5,17.5-78.2,15.8-118.1c-1.6-17.4,10-31.9,16.6-47.1c0.6,9.2,0.8,18.4,1.7,27.6c17.2-13.9,16.3-37.9,21-57.6
				c5.2,10.7,3.4,22.6,3.1,34.1c17.9-11.7,19-34.3,25.4-52.7c1.8,5.5,3.5,11.2,5.3,16.8c12.3-15.9,15.3-36.2,25-53.4
				c-0.6,7.7-2.3,15.2-3.8,22.8c10.7-7.6,20.9-16.3,28.4-27.3c6.9-10.1,13.9-21.1,25.4-26.3c7.6-3.7,16.2-3.4,24.5-2.9
				c5.6,10.2,8.9,21.6,14.7,31.7c17.1,6.1,35.1,15,53.7,10.1c8.5-4.3,16.2-10.3,23.6-16.3c-11.7-2.7-24.2-2.8-35-8.5
				c-10.3-3.9-4-18.9-12.3-24.6c-7.9-6.3-16.7-12-21.2-21.4c7.1-4.1,14.9-9,23.5-7.1c5.8,3.2,10.8,7.8,16.7,11
				c7.5,3.5,12.3-5.5,18-8.9c14.3,4.5,24.4,15.9,34.8,26c3.2-11,2.8-22.9-2.2-33.3c-4.3-12-16.5-17.7-25-26.2
				c-4.3-4.4-9.4-7.9-14.5-11.4c12.9-2.4,26-0.5,38.4,3.6c-2.7-13.4-10.1-26.8-23-32.6c-16.9-5.4-34.5-2.3-51.7-0.5
				c-0.3-18.9,21.4-22.3,34.1-30c-11.8-8.5-27.5-10.6-41.2-6.5c-18.4,10.1-39.9,23.4-42,46.5c-0.9,13.1-5.9,27.1-19.3,32
				c-44.8,6.3-89.6,22.4-123.9,52.8c-10.3,12-21.9,23-36.2,30.1c-7.2-29.8-19.2-58.9-37.9-83.3c-3.7-5.7-2.2-12.7-2.7-19
				c24.4,4.8,49.1,7.8,74.1,7.8c13.3-0.5,27,7.8,39.7,1.7c-4.1-7.3-9.7-13.6-13.3-21.1c-3-10.8,1-21.8,2.7-32.4
				c-4.9,2.8-9.7,5.6-14.5,8.4c-2-6-4-12.1-5.6-18.2c15.1-0.9,30.3,0.8,45.4-0.4c12.7-0.9,24.6-8,31.6-18.5
				c12.6-18.7,15.1-43.7,7.1-64.6c-4.9-11.2-16-18.2-27.9-19.3c0,15.3,5.6,31.3-1.3,45.9c-10.4,17-31.8,22.1-50.3,24.2
				c1.3-5.1,2.7-10.2,4.1-15.3c6.8-2.6,13.7-4.8,20.4-7.4c-0.7-7.5-1.7-15-2.5-22.5c-1.3-15.9,3.6-31.4,8.8-46.2
				c-3.3-3.3-5.9-7.7-10.2-9.5c-11.2-1.6-22.6-0.4-33.6-2.7c-15.7-2-28.6-11.8-42.2-19c-11.6-6.3-24.9-8.9-38-9
				c-21.7,2.4-31.6-21.1-40.9-36.5c-5,1.6-11.4,1.4-14.5,6.3c-7.9,8.2-3.9,20.2-3.1,30.2c-23.5,9.6-44.7,28.9-47.7,55.3
				c-14.9-2.6-28.3-9.7-40.8-18c-0.8,7.6-2.8,15.6-0.4,23.1c4.5,6.4,10.8,11.1,16.5,16.5c-6.9,10.7-13.2,22.2-14.5,35.1
				c-2.6,13.2-1.8,28.9-12.6,38.7c-8.6,6-19.6,2.6-29.4,3.5c8.6,14.3,21.6,25.3,36.4,32.7c-0.1,6.7-0.2,13.5-0.3,20.2
				c-2.4-0.2-7.2-0.5-9.5-0.6c-5.2,10.3-12.1,20.7-7.8,32.7c-10.8,2.7-21.8,1.7-32.8,1.9c7.7,10.6,18.2,18.8,29.8,24.8
				c-10,8.8-7,23.5-10.4,35.2c14.9,0.8,20.6,15.3,23.2,27.8c-10.2,0.9-20.5,0.1-30.7,0.4c6.4,5.9,13.7,10.7,21.2,15.2
				c-3.4,3.9-7,7.7-10,12.1c-1.7,10.9,0.9,22,2.8,32.7c4.9,2,13.4,1.6,13.3,8.7c5.5,33.5-16.5,62.4-37.4,85.8c-10.7,9-26,2.9-36.8-2.7
				c-10-5.7-21.5-7-32.4-10.2c-39.3-24.2-67.4-66.9-70.5-113.3c2.1-11.7,4.1-23.5,6.7-35.1c1.3-5.6,4-11.5,9.8-13.7
				c8.8-5.6,21,3.5,28.5-4.9c16.7-15.9,10.6-40.8,13.2-61.3c3.1-16.1-12.1-29.3-9.9-45.4c1.9-6,5.4-11.4,8.1-17.2
				c-14,0.5-17.8,15.4-25.1,24.7c-19.1-6.1-42-1.2-58.1-14.8c19.9-11.5,45.1,1,64.8-11.9c7.4-7,8.7-18,12.6-27.1
				c5.3-17.1,17-35.7,6.8-53.4c-13.2-23.1-45.2-19.6-61-39.7c-4.5-5.8-6.9-13-9.9-19.6c-10.4,2-13.3,12.9-18.8,20.4
				c-5.1-2.4-11.8-4.3-13.1-10.6c-1.5-8,0.5-16,0.9-24c-4-1.1-8-2.1-12-3.2c-8.5,5.8-16.1,12.5-23.2,19.8c-14.8-6-18-22.5-23.7-35.6
				c-8.3-0.7-19.9-1.8-23.1,8.1c-3.7,12.2-3.5,25.5-9.2,37.1c-66,1.1-132.1-2.6-197.9,3.3c-16.3,0.5-32.6-0.3-48.8,2
				c-16.8,2.9-33.9,0.1-50.7,3.1c-14.6,2.8-29.5,0.5-44.1,3c-18.5,3.2-37.5,0.5-55.9,4.4c-17.8,1-35.6,0.7-53.2,3.6
				c-24.6-0.6-48.8,4.3-73.4,3.9c-42.5,4.7-85.4,5.6-127.9,10.3c-58.9,2.2-116.9,14-175.7,17.4c-19.4,4.1-39.3,1.2-58.9,4
				c-22.4,2.4-44.6-2-66.9-1.6C134.9,137,97.6,130.2,61.9,118c-17.2-4.7-12.4-33.8-32.4-34.2c-17.6,6.9-27.3,32.5-15.4,48.4
				c14.3,23.5,41.3,34.4,66.1,43.1c18.4,7.3,39.4,4.4,57,14.1c-5.5,10.7-4.6,22.8-2.8,34.3c7.6,22.6,28.6,37.9,50.6,44.8
				c30.7,9.4,62.6,14.7,93.2,24.3c-6.7,24.1,10.9,44.7,24.8,62.2c22,20.7,54.5,17.8,82.4,19.5c53.8-2.1,107.7,1.8,161.5-1.2
				c122.2-4.6,243.3-19.4,365.2-28c23-1.5,47.4-8.6,69.4,1.6c-0.2,2.9-0.3,5.7-0.5,8.6c-37.8,4.2-75.2,12.8-113.4,13.1
				c-113.3,3.6-225.6,18.3-338.4,25.7c-19.7,3.7-39.8,0.7-59.6,3.8c-65.4,3.6-131.1-1.9-195.5-13.5c-14-1.2-17.9-16.3-26.6-24.8
				c-9.1-4-15.5,5.1-17.6,12.8c-3.7,13-9.7,28.5-0.5,40.7c10.1,19.4,32.1,25.1,49.7,35.3c10.3,5.1,20,12.2,31.6,14.4
				c61.7,8.6,123.4,16.5,185.7,19.1c21.7,3.6,43.9,1.3,65.8,2.9c15.1,1.8,30.4,2.6,45.7,2.5c46.7,0,93.4,0.5,140.1,0.1
				c37.6-0.4,75.2,1,112.7-2.9c29.3-1,58.7,0.5,88-2c22.4-2.6,45.1-0.9,67.5-2.4c5.7-0.3,11.9-4.2,17.2-0.3
				c12.6,5.2,6.7,22.4,16.1,30.2c7,4,15.2,4.9,22.8,7.4c0.2,1.7,0.6,5.1,0.8,6.8c-19.7,4.4-39.9,2.4-59.8,3.7
				c-19.3,2.7-38.8,2.4-58.3,2.6c-22.3,1.6-44.9,5-67.2,0.7c-17.3-2.9-34.8-3.8-52.2-6.6c-14.7-1.7-29.2,2.1-43.5,4.7
				c-13.7,2.7-24.5,11.8-36.5,18c-42.3,8-85,14.3-127.1,23.5c-32.3,5.5-61.1,22.1-89.4,37.8c-47.4,27.7-90.9,66.3-113.9,117
				c-5.8,12.1-7.7,25.9-15.7,37c-44.3,70.6-78.2,149.5-138.9,208.4c-14.3,15.4-33.8,24.4-53.6,30.6c-34.9,10.1-72.5,9.3-107.3-0.2
				c-10.9-5.6-17.5-16.9-27.4-23.9c-20.3-13.6-33.1-35.9-41-58.5c-6.7-18.9-5.8-39.1-5.4-58.8c-0.1-13.3,4.3-26,9.3-38.1
				c16.7-35,48-63.6,85.9-73.6c15.9-3.9,34.2-6.5,48.7,3c13,8.1,25.7,17.2,36.3,28.3c1.3,11.7,8.9,27.9-2.5,36.6
				c-14.4,1.7-29.2-1.8-43.4,2.2c-22.5,5.5-43.3,19.1-56.2,38.5c-9.9,15.6-7.9,34.6-7.8,52.2c-0.6,13.1,7,25.5,17.5,32.8
				c12,8.6,25.6,15.1,39.6,19.6c14.8,1,30.6,2.2,44.4-4.8c4.3-2.4,11.2-4.6,9.6-10.8c-10.6-13.6-29.4,6.3-42-3.8
				c-6.5-5.9-15.1-13.2-14.2-22.9c3.2-9.5,11.7-21.2,23.2-17.9c16.4,4.8,32,18,50,11.6c20.2-5.7,30.2-25.3,39.8-42.1
				c5.8-11.2,16.8-21.2,14.6-35c-2.3-33-9.5-68.2-32.6-93.2c-14.9-17-36.2-26.2-56.6-34.7c-18.3-7.6-38.5-5.8-57.8-5.2
				c-35.3,4.1-64.8,25.8-91.5,47.5c-27.3,23.2-41.5,58.2-46.8,92.9c-3.2,26.3-6.1,53.3,0.5,79.3c7.9,31,28.5,57.6,54.1,76.3
				c12.7,10.4,28.1,17,40.9,27.2c-28.3,2.4-56.9-0.3-85.3,0.5c-4.2,2.3-10.3,6.5-7.7,12.1c4.6,6.2,11.3,12.9,19.7,11.7
				c57-1.8,114.1,1.2,171-2.6c149.3,1.3,298.5-0.8,447.8,0.4c173.6,0.4,347.3-0.2,520.9-0.4c87.3,1,174.6-0.4,262,0
				c140.1,1,280.3,0.5,420.5,0.6c33.4-2.4,67-1,100.5-1.5c42.7,0.6,85.4-6.3,128-0.5c40.5,0.9,81.1,1.4,121.6,0.3
				c3.7-3.5,5.1-8.7,7.2-13.2C2179.5,1030.6,2153.7,1032.9,2128,1031.6z M620,325.8c-23.3,0.6-46.4,4.5-69.8,3.6
				c-61,5.2-122.3,1.6-183-3.8c-18.1-2.1-35.7-7.2-53.4-11.2c-10.3-1.6-16.6-10.5-21.6-18.7c11.7-1,23.5-0.6,35.3-0.6
				c0.5,2.9,1.1,5.9,1.7,8.8c33,2.6,65.7,9.4,98.9,9.4c183.9,6.4,366.2-22,549.3-33.3c0.1,3,0.4,9,0.5,11.9
				C858.8,304.2,739.5,316.3,620,325.8z M946,268.2c-78.1,6.7-156.4,12.7-234.5,19.2c-43.7,3.7-87.4,7.6-131.2,8.9
				c-28.2,3.9-56.9,0.8-85.2,4.1c-39.3,1.3-78.7,1.9-117.9,0.8c-0.9-1.4-2.7-4.1-3.7-5.5c201.5-6.3,401.5-33.7,602.7-45.2
				c3.2,1.9,6.4,4,9.4,6.3C977.2,270.3,959.6,266.7,946,268.2z M592.2,396.8c27.8-1.5,55.5-4.4,83.3-4.8c31.2-3.8,62.7-1.3,93.9-4.7
				c22.9-1.6,45.9-0.2,68.7-3.5c50.5-1.9,100.8-8.4,151.1-13.7c0.9,4.3,1.7,8.7,2.5,13C872,391.3,752,397.2,632.2,404
				c-36,0-72.2,6.3-108.1,2.6C545.3,397.2,569.7,400.9,592.2,396.8z M976.6,463.1c-36.6,0.8-73.3-0.9-109.8,1.8
				c-120.8,3.6-242,9.6-362.6-1.2c-65.3-5.2-130.2-14.9-194.5-27.3c-21.5-6.2-41.8-16.3-60.1-29c2-3.7,4-7.4,6-11
				c32.9,15.2,69.4,21.7,105.5,21.3c33.6,0.1,67.2,0.2,100.8,0.1c5-0.2,8.3,4.4,12,7.2c23.5,22.7,56.9,30.7,88.4,34.2
				c45.9,3.7,91.4-6,137.2-6.5c27.4-3.4,55-1.5,82.4-4.7c36.6-0.6,72.9-4.4,109.5-4.3c29-2.7,58.2-2.5,87.2-4.6
				c11.2,0,22.4-2.4,33.5-1c6.8,2.9,11,9.6,16.4,14.5C1012.2,460,994.2,461.9,976.6,463.1z M1034.4,157.4c-39.8,1-79.3,5.6-118.9,8.2
				c-96.7,8.4-193.5,17.3-289.7,30.6c-56.4,9.1-113.4,14.9-170.6,17.2c-55.6,3.5-111.4,1.5-167.1,2c-30.2,0.8-60.4-4.3-90.5-2
				c15.4,9.2,34.2,7.3,51.2,10.9c21.3,0.8,42.3,4.6,63.7,3.8c35.5-0.3,71.2,1.5,106.6-2.5c16.7-1.2,33.6,0.1,50.2-2.3
				c17.6-2.2,35.4-0.9,53-3.2c87.4-5.3,174.2-17.8,261.1-27.5c77.8-8.7,156.1-19,234.6-15.6c-1.5,7.1-5.9,14.4-14,14.3
				c-25.7,0.5-51.4-0.6-77,0.9c-11.9,1.5-23.8,2.6-35.7,2.6c-144.5,11.5-287.9,34.3-432.6,43.9c-26.3,2.9-52.8,2.5-79.2,2.6
				c-16.2,1-32.5,2-48.7,0.5c-35.6-2.3-71.9,2.9-107-5.8c-26.8-6.5-54.3-18.2-72-40.2c26.7-7.9,54.3-2.5,81.4-0.5
				c36.9,4.8,74.2,7.6,111.3,3.4c103.3-4.2,206.3-14.7,309.3-25.1c120.1-12.1,240.4-23.8,360.9-32c12.2-1.7,24.5-2.1,36.7-1.4
				C1050.1,149.1,1043.2,156.3,1034.4,157.4z M161.1,867.4c9.8-10.7,33.5-13.2,38.1,3.4C186.5,872.6,173.6,870.3,161.1,867.4z
				 M254,835.6c0-8.3-1.1-16.6-0.2-24.9c8.4,8.7,10,21.2,7.9,32.7c-3.1,6.6-9.8,10-16.3,12.3C246.4,848.2,251.4,842.5,254,835.6z
				 M226.8,891.9c-9.4,2.4-18.2-2.9-25.5-8.2c14-0.5,27.8-2.6,41.4-6.2C238.7,883.5,234.5,890.6,226.8,891.9z M403.2,985.1
				c5.5,13.2,17.2,23.3,19.6,37.9c-21.1,5.5-43.2,1.9-64.6,5.5c-28.5,0.7-57,0.5-85.5,0.2c-9.1,0.1-18.1-1.6-26.9-3.3
				c42.3-18.7,77.3-51.1,102.5-89.5c22.5-34.6,44.1-69.8,66.6-104.4c3.4,5.3,8.8,10.1,8.9,16.9c2.1,37.7-4.8,75.8-19,110.8
				C400.6,967.3,402.8,976.4,403.2,985.1z M1951.3,456.5c8.2,6.5,14,15.4,17.4,25.2c-12.1-1.6-18.2-13.6-26.7-21
				C1944.3,459.7,1949,457.6,1951.3,456.5z M1884.5,435.5c8.7,10.8,10,25.1,9.6,38.4c-5.3-1.8-11-3.6-14-8.6
				C1876.8,455.3,1879,444.3,1884.5,435.5z M1815,480.4c-8,1.6-15.8-0.4-19.1-8.5C1803.8,470.4,1810.6,473.9,1815,480.4z
				 M1669.9,228.6c-20.8,0.9-45.2-6.5-53.6-27.6c20.3-1.2,40.8-0.4,61.1-0.1C1676,210.4,1673.6,219.8,1669.9,228.6z M1678.4,170.4
				c-16.9,0.7-33.8,2.4-50.7,2.5c-1.2-8.3-2.9-16.6-4.2-25c16.2,0.6,32.4,1.9,48.7,2.2C1674.7,156.7,1676.7,163.5,1678.4,170.4z
				 M1619.4,66.8c12.2,1,23.4,10.9,24.7,23.4c-14.9-1.2-36.5,1.8-43-15.5C1606.9,71.7,1612.6,67.2,1619.4,66.8z M1334.5,554.9
				c5.6-0.6,11.3-0.8,17-0.7c0.7,7.9,4.5,16.3,1,24c-2.4,5.7-4.9,11.4-7.7,16.9c-1-0.3-2.9-0.8-3.9-1.1
				C1336.8,581.4,1332.8,568.3,1334.5,554.9z M1257,261.4c13.3-2,24.1,7.4,32.3,16.6c-1.1,13.3,1.3,28.8-9.6,38.8
				c-8.6-2.6-18.3-12.5-27.2-6.7c-17.4,24-20.4,55.3-18.3,84.1c3.5,31.2,14.8,61.5,33,87.1c10.5,16.3,27.4,27.1,38.8,42.8
				c-34.3-8.5-57.5-38.7-75.4-67.1c-16.7-30-35-61.2-36.4-96.4c-1.8-29.3,3.5-58.5,9.9-86.9C1221.7,269.6,1239,263.4,1257,261.4z
				 M1213.5,526.1c14.8,8.2,22.1,24.7,36.7,33.1c10.3,7.2,25.1,18.6,17.1,32.8c-15.6-14.3-31.4-28.5-48.4-41.1
				c-22.8-15.8-42.1-39.7-42.8-68.5c4.4,1.9,9.4,3.6,11.7,8.2c0.8,5.2,0.4,10.6,0.5,15.8C1195.6,514.2,1204.1,520.8,1213.5,526.1z
				 M1130.6,278.3c3.8-13.5,8.2-27.5,17.6-38.2c3.3-10.4-1.2-22.2,4.2-32.2c8-10.2,20.4-16.1,28-26.7c3.9-5.7,4.9-13.1,9.5-18.2
				c13.5-11.2,31-17.9,48.7-17.3c13.9-0.1,29.4,4.1,38.1,15.7c1.7,11.1-1.1,25.2-12.2,30.5c-5.5,1.1-11.7,1.3-16.7-1.5
				c-1.8-2.8-2.2-6.2-3.1-9.4c6.2-2.4,12.5-4.7,18.1-8.4c-9.2-17.9-32.7-16.5-48.2-9c-5.6,5.6-9.8,12.4-14.4,18.8
				c-9.2,15.7-28.6,19.9-39.9,33.6c0.3,10.8,2.7,22.4-3.5,32c-8.2,14.2-14.3,29.5-15.1,46C1137.1,289.6,1129.4,285.8,1130.6,278.3z
				 M1157,433.8c-0.9,5.1-2.7,10-4.3,14.9c-10.4-14-15.7-30.9-22.2-46.9c-3.7-7.6-2.6-16.1-1.9-24.2c8,3.8,7.7,13.7,11.7,20.6
				C1146.2,409.9,1153.8,420.9,1157,433.8z M1136.6,302.4c1.6,19.8-10.6,37.3-10.4,57.1c-4.9-3.7-12.1-7.1-11.5-14.3
				C1112.2,328.6,1117.7,306,1136.6,302.4z M1104,656.5c5.9,3.2,11.3,9,18.6,8.2c5.5,0.5,9.7-3.5,14.3-5.7
				c4.7,12.1,6.9,25.2,13.6,36.4c4.4,7.7,13.6,9.8,21.6,11.9c2.9-10,4.4-20.4,8.2-30.1c8.4,9.9,9.1,23,12,35
				c2,11.7,16.1,13.3,25.2,16.9c9.5-12.9-1.9-29.6,7.4-42.3c2.2,1.5,6.5,4.5,8.6,6.1c-0.7,12.2-0.3,26,9.6,34.8
				c8.3,4.9,18,6.5,26.6,10.8c-6.6,6.7-16,9.5-25.1,6.6c-15.3-4.4-32.4,3.7-46.5-5.7c-19.6-12-35.3-30.3-57.9-37.1
				c-3.1-8.5-6.1-17-9.2-25.5c-15.4,1.6-30-4.8-41.6-14.4c-10.6-8.9-23.6-14.8-32.7-25.3C1073.9,639.4,1089.3,647.8,1104,656.5z
				 M1044.9,631.2c0.2,1.5,0.7,4.4,0.9,5.9c-15.1-3.1-30.6-3.6-45.7-6.9c-4.6-0.2-8.4-2.9-11.1-6.3
				C1008.3,621,1026.1,630,1044.9,631.2z M748.5,723.5c7.5-11.5,11.8-26.2,24.5-33.2c-1.7,6-3.9,11.8-6.8,17.3
				c-9.8,18.2-17.6,38-31.7,53.5c-3.5,4.3-8.3,6.6-13.7,6.8C729.4,752.6,740.4,739,748.5,723.5z M472.5,743.2
				c21.6-27.1,42.6-54.8,64.7-81.5c6.5-7.9,15.4-13.1,23.8-18.8c32.2-20.5,67.6-40.1,106.4-43c-2,1.7-6,5.2-8,6.9
				c-35,22-61.1,56.5-76.4,94.5c-11.7,26.6-25.4,52.3-36.1,79.4c-1.9,6.6-9,9.4-15.2,10.3c-19.2,2.3-35.7-9.6-53.5-14.7
				c-8.8-3.2-18.2-2.6-27.3-3.5C456.9,762.1,464.9,752.7,472.5,743.2z M490.1,1027c-10.9-7.4-22.3-19.3-17.8-33.5
				c2-0.4,6.1-1.2,8.1-1.7C490.5,1000.8,492.8,1014.1,490.1,1027z M470.1,856.5c-6,2.8-7.9-5-11.2-8.3c4.8-6.1,8.8-15.9,18.1-15.1
				c5.7-0.9,10.4,2.8,15.1,5.3C484.7,844.5,477.8,851,470.1,856.5z M538.4,1021.8c-10.2-7.4-19.9-20.7-11-32.9c5.8,1.3,12,1.9,17,5.5
				C548,1003.9,547.5,1015.6,538.4,1021.8z M583.6,1023.7c-10.9-6.1-14.6-18.9-17.9-30.1c4.1-1.9,8.3-3.6,12.5-5.2
				C587.6,997.9,586,1011.8,583.6,1023.7z M1111.5,990.9c4-1.7,8.1-3.3,12.2-4.9c6.4,11.3,11.6,23.5,13.5,36.4
				C1120.7,1021.3,1113.1,1005.4,1111.5,990.9z M1165.5,994.1c5.4-1.2,11.8-6.9,16.5-1.2c6.1,7.9,6.1,18.5,6.5,28.1
				C1178.7,1014,1171.1,1004.5,1165.5,994.1z M1318.6,753.3c-22.7,69.1-15.2,146-49.3,211.7c-4.5,7.4,1.5,15.5,2.2,23.2
				c7.7-5.2,16.4-8.2,25.7-8c4.6,13.2,5.3,27.3,4.2,41.2c-28.1,15.4-60.6,5.3-90.8,7.6c0.1-11.5-2-23-7.5-33.2
				c-5.7-10.7-10.5-23.2-21.4-29.7c-16.9-1.2-33.9-2.8-50.2-7.2c-25.7,3.9-53.1,6.1-77.4-5c-19.9-7.9-31-27.8-40.3-45.8
				c-5.8-9.8,3.1-19.5,5.4-28.9c10.1-30.6,38.8-51.6,44.9-83.8c1.1-7.3,4.5-17.5-3.7-22c-21.7-14.6-36-37.1-55.2-54.4
				c-8.5-7.8-20.2-9.8-30.3-14.8c-32.8-15.2-62.5-39.5-99.4-43.7c-22-2.9-43.2,7.3-60.1,20.5c-5.9,4.4-5.1,12.2-5.8,18.7
				c35.7,21.1,73.4,43.3,95.8,79.5c6.4,11.4,13.2,24.1,12.4,37.6c-2.9,6.9-7.4,12.9-10.2,19.8c-8.4,18.3-9.4,39.3-20.2,56.5
				c-5.2,9.4-14.4,15.2-21.5,22.9c-4.9,20.4,16.2,30.6,29.7,40.4c7.9,7.2,19,5.1,28.7,6c39.2,4.1,78,23.8,100.3,57.1
				c3,3.8,2.7,8.8,3.6,13.3c-13.3,1.7-26.5-0.1-39.5-3c-72.1-0.6-144.2-0.8-216.3-1c-26.2-3.2-52.7-1-79.1-1.8
				c-28.5-1.5-57.1-0.3-85.6-0.3c8-17.4-0.9-35.5-8.4-51.3c-9.2-15.9-31.5-16.1-46.5-9.1c-2-3.2-4-6.2-6.2-9.2c-7.7-4.9-17-2-25.4-3.8
				c-10.6-6.9-11.7-20.6-13.3-32c-1.7-13.7-3.2-30.2,7.4-40.9c9.3-9.1,23-6.4,34.7-5.9c26.8,4.1,55.8,16.8,81.9,3.7
				c29-26.2,61.3-48.4,92.3-72.1c25-21,51.1-44.2,61.8-76.1c11.1-28.5,24-56.9,43.6-80.7c4.8-6.7,10.7-12.7,18.4-16
				c-3.2,7.3-6.8,14.4-9.5,21.9c18.6-2.1,36.9-7.1,55.7-6.7c26.3,0.4,52.8-1.4,78.7,3.7c40.2,6.2,79.4,19.4,115.2,38.8
				c5.6,3.6,8.1,10.2,11.9,15.5c21.3,35.2,59.9,56.5,99.3,65.3c20.8,5.5,42.4,5.2,63.8,7.4c13.7,0.5,27.3-3,41-3.1
				c-1-25.3,2.9-50.3,3.4-75.5c23.9-5.3,48.3-2.5,72.5-2.1c-0.9,1.9-2.6,5.6-3.4,7.5c-8.8,0.8-17.4,2.3-26.1,3.3
				c-11.6,1-24.8-1.6-34.3,6.9C1307.3,727.8,1321,740.9,1318.6,753.3z M1012.2,791.5c1.1-1.2,3.4-3.4,4.5-4.6
				c7.4,12.4-0.6,25.8-6.7,36.9c-1.9,4.2-6.9,4.3-10.7,5.8C1003.6,816.6,1014,806,1012.2,791.5z M958.9,876.2c2,4,4,8,6,12.1
				c2.5-2.3,4.9-4.6,7.4-6.9c6.9,3.5,14.2,6,21.5,8.8c-9.7,8.3-25.7,13.3-35.9,3.4C950,889.7,956.9,881.5,958.9,876.2z M955.9,908.5
				c-3.5,4.2-8.8,7.3-10.3,12.8c-0.3,7.4,0,14.9-0.9,22.3c-6.6-2.9-13.5-6.8-16.2-13.9c0.2-10.4,8.2-17.9,14.2-25.5
				C947.1,905.5,951.5,907,955.9,908.5z M1363.9,1018.3c-9.8-9.2-19.4-22-16.8-36.2c2.5-6.5,9.9-4.6,13.9-0.7
				C1366.8,992.8,1365.3,1006.1,1363.9,1018.3z M1402.5,1021.9c-8.8-11-8.5-25.9-6.8-39.1c3.8,1.3,7.4,2.9,11.1,4.7
				c2.4,6.9,4.1,14.2,4.3,21.6C1409,1013.8,1405.5,1017.7,1402.5,1021.9z M1438.8,1007.4c-5-2.3-9.3-5.5-13.3-9.1
				c1.2-2.6,3.5-8,4.7-10.7C1438.1,991.1,1440.5,999.3,1438.8,1007.4z M1890.4,1031.6c-56.8-2.4-113.8-1.1-170.6-1.5
				c-81.1,0.3-162.2-0.7-243.3-1.1c-6.7-12.5-10.8-26-14.5-39.5c-2.7-8.3-5.9-18.1-14.7-21.8c-6.1-4.5-13.4-0.1-19.8,1.1
				c-7.5-9-18.1-14.4-29.9-14.9c-12.3-0.2-26-9.7-23.9-23.3c1.8-40,23.5-75.6,29.5-114.8c2.1-7.7-0.6-19.1,9.2-22.1
				c50.1-22.8,98.2-61.5,112.5-117.1c5.7-30.7-4.2-61.3-12.1-90.7c8.3,4,12.4,12.6,16,20.6c11.5,27.6,13.7,59.6,3.6,87.9
				c-9.3,32.7-29.6,64.6-61.9,78.2c-4.9,2.7-14.9,6.8-9.3,13.5c3.7,0.5,7.4,0.5,11.1,0c52.8-9.6,105.6-19.8,159.2-24.7
				c6.8,10.6,13.7,21.3,21.6,31.2c12-9.6,21.2-21.9,30.3-34.1c1.9,9,3.6,18,5.5,27c10.7-13,10-30.8,17.9-45.1c2.4,6.9,4.3,14,6.7,21
				c11.5-14,7.2-33.1,10.9-49.6c1.5,0.1,4.4,0.3,5.9,0.4c0.4,6.7,0.7,13.4,1.3,20c15.1-13.2,12.2-35.1,14.5-53.1
				c4.2,3.1,8.2,6.4,12.4,9.5c-0.8,86.7,0,173.5-0.4,260.2c60.1,29.4,121.4,56.5,184.2,79.7C1926,1035.1,1907.6,1030.1,1890.4,1031.6z
				 M1899,983.2c-37.2-16.6-75-31.8-113.2-45.8c0.3-63.2-0.5-126.5,0.4-189.8c0.3-37.3-1.6-74.7,2.6-111.8c1-4.4,2.9-8.5,3.6-12.9
				c-1.8-6-5.4-11.7-4.2-18.2c1.3-24.4-1.3-49.1,3.4-73.3c1.6-9.9,2.3-19.9,4.7-29.7c1.3-5.4,5.5-11.8,11.6-11.7
				c40.8,1,81.5,1.2,122.3,1c10.6-0.1,15.8,13.7,26.7,12.1c18.4-2.5,36.5-7.4,55.2-7.5c51-1.2,102.4,6.2,153.1-2.4
				c3.9,4.7,7.2,9.9,6.5,16.3c1.7,79.4-0.4,158.8-0.2,238.2c-2.9,25.3-0.7,50.7-2.1,76.2c0,36.6-0.4,73.1-1.1,109.6
				c-0.1,4.1-2.3,8.3-6.3,9.7c-54.8,23.5-111.2,44.9-162,76.6C1965.1,1011.7,1931.4,998.6,1899,983.2z"></path>
			<path class="st0" d="M2042.8,716.1c5.3-0.9,11.8-5.7,16.4-0.6c6.8,8.7,11.5,19,17.4,28.4c4.1-8.9,6.9-18.3,11.8-26.8
				c4.1-6.4,12.7-3.2,18.9-4c-7.8,18-5.1,38.7-0.3,57.2c-7.5,0.2-14.9,0.2-22.4,0c8.1-9.8,5.7-22.6,5.6-34.3c-5,9-7.7,19.7-16.1,26.3
				c-4.6-6.2-8.7-12.8-13.6-18.6c-2.2,9.7-0.2,19.1,6.5,26.5c-7.5,0.3-14.8,0.3-22.2,0.1c8.6-10.7,5.9-24.8,6.3-37.5
				C2051.9,725.9,2046,721.3,2042.8,716.1L2042.8,716.1z"></path>
			<path class="st0" d="M1888,711.1c-4.3,3-10.3,4.8-11.8,10.4c-6.2,16-10.1,32.7-16.5,48.5c6.1,0.2,12.4,0.3,18.6,0.2
				c-2-4.7-3.9-9.4-5.7-14.1c3.8-1.5,7.6-3,11.5-4.4c1.3,2.1,4,6.2,5.3,8.3c-2.2,3.4-4.3,6.7-6.3,10.1c7.6,0.3,15.2,0.3,22.9,0
				C1897.5,751.3,1892.3,731.2,1888,711.1z M1883.8,744.1c-5,1.6-6.7-0.2-5-5.1C1883.7,737.4,1885.4,739.2,1883.8,744.1z"></path>
			<path class="st0" d="M2150.2,854.2c-1.6-17.2-2.2-34.5-0.5-51.8c1.9-22.4-1.7-44.7-1-67c0-29.5,0-58.9-0.1-88.3
				c-1.8-43.3,1-86.7-0.7-130c-4.9-5.5-12.7-6.2-19.6-6.5c-23.5-1.3-46.9,4.4-70.3,1c-52.2-9-105.1-2.4-157.5,0.6
				c-29.1,4.2-58.5,1.5-87.7,2c-0.4,34.1-0.7,68.3-1,102.4c-3.7,42.6-0.9,85.5-4.7,128c-1.2,60.3-1.9,120.7-0.1,181
				c54.7,22.4,110.4,42.3,165.8,62.9c7.8,2.6,16.1,7.5,24.3,3.4c51.8-19.3,103.8-39.1,153.4-63.7
				C2150.4,903.5,2150.9,878.9,2150.2,854.2z M1944.9,537.6c15.5-6.6,32.7-4.2,49.1-4.6c24.4,6.5,48.3,15.6,70.1,28.6
				c12.6,7.4,23.5,17.8,30.4,30.8c37.9,67.1,48.7,149.9,26.3,223.9c-7.7,21.9-15.5,45.4-33.6,61c-18.7,19.9-39.8,38-64.9,49.3
				c0.1-64.7,3.4-129.4,2.7-194.2c-0.5-9.6,1.7-19.8-2.1-29c-5.7-8.8-15.7-13.1-23.6-19.5c-0.1-14.4,2.7-28.7,0.7-43
				c-1.2-17.3-6.4-34.2-5.1-51.6c1-13.4,0-26.9-2.5-40.1c-11-1.1-22.3-1.9-33,1.6c-0.7,14.8-1.3,29.7-0.2,44.5
				c-1.6,16.3-5.5,32.3-6.1,48.7c-0.7,13.7,0.7,27.4,0.3,41.1c-8.3,5.8-18.4,10.2-24.1,19.1c-5.7,9.4-2.5,20.9-3,31.3
				c2,61.9,1.7,123.9,4.7,185.7c-21.4-10.2-38.1-27.3-53.7-44.6c-30.2-39.3-43.6-89.1-45.6-138.1c-1.8-48.7,6.6-99.6,34-140.7
				c7.6-13.6,21.8-20.8,33.5-30.3C1914,556.9,1927,543,1944.9,537.6z M1824.7,535.8c1.8-6,8.7-5.1,13.7-5.3
				c19.1,0.1,38.2-2.4,57.3-1.2c-9.8,10.9-21.6,19.7-30.7,31.3c-17.5,19.3-29.9,42.5-41.9,65.5c-1.2-13.3-0.3-26.7-1-40
				C1821.9,569.4,1819.8,552,1824.7,535.8z M2136,914.5c-43.3,23.8-87.6,46.3-133.7,63.8c-31.1,1.3-59.6-14-87.2-26.6
				c-17.1-7.3-32.9-17.9-51.3-21.4c-13.2-3-26-7.8-37.6-14.7c-3.6-1.8-6.9-5.3-6.6-9.6c-0.4-17.3,0-34.6-0.4-51.9
				c-0.4-5.4,1.2-10.5,2.9-15.4c14.3,25.7,27.9,53.1,50.8,72.5c9,7.1,18.9,15.8,31.2,14.5c15.2,27.8,50,28.5,77.5,32.9
				c32,6.4,64.7-7.1,88.9-27.6c28.3-22.6,46.7-54.5,64.8-85.2C2137.1,868.6,2136.1,891.6,2136,914.5z M2137.5,600.1
				c-12.8-14.5-20.1-33.4-35-46.2c-9.3-11.2-23.2-18-30.8-30.5c15.6,3.3,31.4,4,47.3,3.2c10.1-0.9,21.1,6,21.8,16.8
				C2138.1,562.1,2139.8,581.2,2137.5,600.1z"></path>
		</g>
		</svg>
